<svg width="16" height="16" viewBox="0 0 24 24" fill="none" xmlns="http://www.w3.org/2000/svg">
<path d="M16.4745 5.40801L18.5917 7.52524M17.8358 3.54289L11.6716 9.70711C11.2725 10.1062 11.0251 10.3556 10.8216 10.6428C10.6181 10.93 10.4633 11.2463 10.1536 11.8789L9.71961 12.7456M17.8358 3.54289C19.0191 4.72618 19.0191 6.64193 17.8358 7.82522L11.6716 14.0894C11.2725 14.4886 11.0251 14.738 10.8216 15.0252C10.6181 15.3124 10.4633 15.6287 10.1536 16.2612L9.71961 17.128C9.30073 17.9843 9.09129 18.4125 8.71734 18.5167C8.34338 18.6209 7.9269 18.3837 7.09393 17.9095L6.2697 17.4417C5.63714 17.132 5.32086 16.9772 5.03366 16.7737C4.74647 16.5702 4.49707 16.3228 3.99816 15.8239L3.99815 15.8239C3.49924 15.325 3.25183 15.0756 3.04831 14.7884C2.84478 14.5012 2.68999 14.1849 2.38041 13.5524L1.91246 12.6857C1.43824 11.8527 1.20113 11.4362 1.30537 11.0622C1.40961 10.6883 1.83783 10.4789 2.69426 10.06L3.56094 9.62599C4.19349 9.31641 4.50977 9.16162 4.79697 8.95809C5.08416 8.75456 5.33357 8.50715 5.83247 8.00824L5.83248 8.00823L12.0533 1.78737C13.2366 0.604076 15.1523 0.604076 16.3356 1.78737L17.8358 3.54289Z" stroke="#666666" stroke-width="1.5" stroke-linecap="round"/>
</svg> 